<?xml version="1.0" standalone="no"?>
<!DOCTYPE svg PUBLIC "-//W3C//DTD SVG 20010904//EN"
 "http://www.w3.org/TR/2001/REC-SVG-20010904/DTD/svg10.dtd">
<svg version="1.0" xmlns="http://www.w3.org/2000/svg"
 width="872.000000pt" height="872.000000pt" viewBox="0 0 872.000000 872.000000"
 preserveAspectRatio="xMidYMid meet">
<metadata>
Created by potrace 1.11, written by Peter Selinger 2001-2013
</metadata>
<g transform="translate(0.000000,872.000000) scale(0.100000,-0.100000)"
fill="#000000" stroke="none">
<path d="M6173 6534 c-4 -10 0 -20 10 -26 9 -5 61 -41 114 -81 162 -120 322
-228 370 -249 35 -16 79 -22 187 -27 78 -4 147 -10 153 -14 6 -4 55 -11 109
-17 124 -14 208 -34 245 -61 l29 -20 10 26 c5 14 10 29 10 31 0 13 68 104 114
152 75 80 331 219 421 230 38 4 45 1 60 -22 10 -14 32 -33 50 -42 18 -8 38
-25 44 -38 27 -50 64 -61 217 -61 l141 0 -42 -65 c-23 -36 -71 -115 -108 -177
-55 -91 -80 -121 -132 -163 -36 -28 -75 -65 -87 -83 l-22 -31 3 -925 3 -926
25 -46 c25 -46 56 -87 171 -218 43 -50 62 -80 62 -99 0 -36 -85 -146 -107
-138 -49 19 -64 18 -98 -10 -99 -81 -100 -82 -87 -95 18 -19 15 -35 -15 -77
-49 -68 -109 -105 -183 -113 -109 -12 -160 -48 -160 -112 0 -12 -9 -56 -20
-97 -11 -41 -20 -90 -20 -108 0 -26 -11 -45 -50 -86 -44 -47 -54 -66 -85 -162
-19 -60 -50 -135 -69 -167 -54 -89 -229 -307 -243 -302 -25 9 -650 457 -703
505 l-55 50 28 49 c34 61 36 120 6 162 -11 16 -49 44 -82 61 -34 17 -97 51
-141 76 -63 36 -80 42 -87 31 -5 -8 -9 -17 -9 -20 0 -6 130 -80 217 -123 87
-43 101 -82 58 -166 -40 -78 -36 -89 58 -167 65 -55 360 -268 701 -506 24 -17
30 -18 36 -6 5 8 53 70 107 139 163 206 182 239 223 386 19 67 29 86 71 129
33 34 50 61 54 85 3 19 18 90 32 157 l27 123 45 15 c24 8 63 15 86 15 40 0 69
15 141 70 42 32 84 103 84 142 0 31 5 40 29 53 16 8 36 21 43 29 13 12 19 12
47 -1 29 -15 33 -14 52 3 12 10 41 45 65 77 36 48 44 67 44 102 0 39 -7 50
-73 126 -39 46 -91 107 -113 134 -81 98 -74 7 -74 1027 0 781 2 917 14 934 8
12 46 46 83 77 60 49 80 76 168 222 55 91 112 179 127 196 52 57 44 62 -99 54
-175 -10 -229 1 -287 57 -115 113 -112 111 -174 106 -45 -4 -86 -21 -211 -84
-175 -89 -239 -141 -317 -255 -34 -50 -52 -68 -63 -64 -43 17 -136 36 -218 44
-51 5 -98 13 -104 17 -6 4 -77 10 -158 14 -92 5 -160 14 -183 23 -35 15 -221
141 -401 272 -49 36 -93 65 -98 65 -5 0 -12 -7 -16 -16z"/>
<path d="M703 5310 c-201 -21 -311 -78 -364 -188 -18 -37 -23 -70 -27 -157 -5
-121 20 -434 44 -555 30 -148 110 -246 233 -287 51 -16 95 -18 481 -18 l425 0
60 24 c112 45 188 147 215 291 18 93 43 389 43 505 0 101 -4 129 -22 178 -49
126 -155 184 -380 207 -116 11 -598 11 -708 0z m845 -85 c68 -24 135 -83 157
-137 26 -66 29 -172 10 -418 -17 -230 -25 -287 -49 -345 -24 -56 -83 -112
-144 -137 -55 -21 -71 -22 -422 -26 -402 -4 -477 3 -552 53 -54 36 -94 104
-112 189 -20 93 -50 515 -42 580 15 115 53 178 129 218 84 44 128 47 562 45
373 -2 415 -4 463 -22z"/>
<path d="M660 5211 l-45 -6 3 -40 c1 -22 16 -240 32 -484 17 -244 30 -453 30
-463 0 -16 9 -18 79 -18 l78 0 37 115 c47 146 58 155 189 155 96 0 135 -13
155 -52 7 -12 24 -66 40 -118 l27 -95 80 0 80 0 32 500 c17 275 30 501 29 503
-2 1 -27 3 -56 5 l-53 2 -61 -267 c-67 -288 -80 -320 -147 -357 -30 -17 -54
-21 -130 -21 -107 0 -159 21 -191 76 -10 17 -46 152 -80 299 -35 148 -67 269
-73 270 -5 1 -30 -1 -55 -4z"/>
<path d="M3775 5129 c-220 -20 -385 -116 -431 -249 -58 -169 16 -345 179 -425
95 -46 187 -65 327 -65 239 0 408 78 479 222 28 55 31 71 31 152 0 74 -4 100
-24 141 -72 155 -304 248 -561 224z m181 -174 c96 -59 130 -184 80 -290 -30
-63 -58 -92 -110 -116 -106 -48 -217 -1 -272 116 -54 114 -10 248 101 309 48
26 141 17 201 -19z"/>
<path d="M6880 5025 l0 -75 75 0 c41 0 75 -3 75 -6 0 -6 -169 -298 -206 -356
-24 -38 -25 -38 -90 -38 l-65 0 3 -72 3 -73 218 -3 217 -2 0 75 0 75 -60 0
c-33 0 -60 2 -60 6 0 3 10 23 23 44 l22 40 166 0 167 0 25 -42 25 -43 -59 -3
-59 -3 0 -74 0 -75 280 0 280 0 0 75 0 75 -63 0 -63 0 -146 273 -146 272 -281
3 -281 2 0 -75z m373 -165 l38 -70 -80 0 c-45 0 -81 2 -81 5 0 10 74 135 80
135 3 0 22 -32 43 -70z"/>
<path d="M2120 5020 l0 -70 65 0 65 0 0 -200 0 -200 -65 0 -65 0 0 -70 0 -70
263 2 262 3 0 65 0 65 -60 3 c-33 2 -63 9 -67 15 -9 14 -10 63 -2 95 6 22 8
22 190 22 l184 0 0 -65 0 -65 -65 0 -66 0 3 -67 3 -68 263 -3 262 -2 0 70 0
70 -65 0 -65 0 0 200 0 200 65 0 65 0 0 70 0 70 -265 0 -265 0 0 -54 c0 -82 3
-86 71 -86 l59 0 0 -60 0 -60 -185 0 -185 0 0 60 0 59 63 3 62 3 3 68 3 67
-266 0 -265 0 0 -70z"/>
<path d="M4402 5028 l3 -63 55 -3 c30 -2 58 -9 62 -15 9 -14 10 -316 2 -369
l-7 -38 -59 0 -59 0 3 -62 3 -63 180 -3 c99 -1 190 0 203 3 20 5 22 11 22 65
l0 60 -54 0 -54 0 -4 143 c-2 78 -1 160 2 181 l5 39 165 -233 c90 -128 170
-239 178 -247 11 -11 52 -13 200 -11 l187 3 3 272 2 272 63 3 62 3 3 63 3 62
-206 0 -206 0 3 -62 3 -63 58 -3 57 -3 0 -176 c0 -126 -3 -174 -11 -166 -6 6
-83 113 -172 239 l-162 229 -268 3 -268 2 3 -62z"/>
<path d="M5630 5021 l0 -71 60 0 60 0 0 -200 0 -200 -60 0 -60 0 0 -70 0 -70
333 0 c374 0 445 7 534 51 128 62 196 202 171 354 -18 115 -76 187 -195 243
l-58 27 -392 3 -393 3 0 -70z m697 -107 c71 -57 104 -145 84 -222 -15 -56 -46
-91 -105 -118 -44 -21 -66 -24 -163 -24 l-113 0 0 201 0 201 129 -4 c127 -3
130 -3 168 -34z"/>
<path d="M6479 4325 c-52 -35 -69 -86 -26 -78 12 3 55 -6 94 -20 l72 -24 -54
-53 -54 -53 -82 23 c-69 20 -83 21 -89 9 -5 -8 -27 -38 -49 -68 -23 -30 -40
-55 -38 -57 1 -1 54 -5 118 -9 l116 -7 7 34 c12 64 23 71 95 58 90 -16 111
-28 111 -62 l0 -28 164 0 c153 0 165 1 171 19 9 29 55 72 100 92 28 13 63 19
115 18 l75 0 -62 -59 c-35 -33 -63 -62 -63 -65 0 -3 50 -5 110 -5 122 0 148 8
243 77 54 40 61 58 17 48 -35 -8 -191 3 -209 14 -9 6 -2 24 21 65 31 53 35 56
63 51 80 -16 205 -27 246 -22 33 4 74 23 140 64 l94 58 -210 3 c-137 2 -217
-1 -230 -8 -11 -6 -33 -28 -49 -49 -28 -38 -28 -39 -111 -43 -68 -4 -95 -10
-149 -37 -39 -19 -77 -46 -92 -67 -17 -22 -35 -34 -50 -34 -13 0 -24 3 -24 8
0 22 57 141 66 138 6 -2 35 -7 65 -10 l54 -7 53 51 c28 28 52 53 52 56 0 2
-42 4 -94 4 l-93 0 -27 -40 c-14 -22 -29 -40 -31 -40 -3 0 -25 18 -49 40 l-44
41 -74 -3 -73 -3 41 -22 c23 -12 44 -29 48 -38 10 -27 7 -70 -6 -83 -19 -19 7
-61 52 -81 l40 -18 -42 -41 c-56 -56 -73 -60 -109 -26 -34 33 -36 45 -9 69 11
10 20 31 20 46 0 43 -38 63 -121 63 l-68 1 38 40 c35 36 61 74 61 89 0 3 -55
6 -123 6 -113 0 -125 -2 -158 -25z"/>
<path d="M2329 4305 c-125 -40 -185 -220 -89 -267 65 -33 193 -21 261 25 77
51 105 187 47 230 -35 26 -154 33 -219 12z m143 -65 c15 -24 -9 -99 -43 -132
-25 -25 -35 -29 -76 -26 -42 3 -48 6 -51 27 -5 35 26 108 56 131 30 25 99 24
114 0z"/>
<path d="M2630 4173 l5 -148 60 -3 60 -2 55 81 55 81 5 -78 5 -79 62 -3 61 -3
93 132 c50 73 94 141 97 151 4 16 -2 18 -50 18 -37 0 -55 -4 -55 -13 0 -7 -22
-46 -49 -86 l-49 -74 -5 84 -5 84 -52 3 -51 3 -66 -91 -65 -92 -3 89 -3 88
-55 3 -55 3 5 -148z"/>
<path d="M3244 4311 c4 -5 -14 -69 -39 -141 -25 -73 -42 -136 -39 -141 3 -5
31 -9 62 -9 31 0 52 4 45 8 -9 5 -5 28 16 85 l27 77 22 -45 c49 -100 70 -125
106 -125 l34 0 46 138 c25 75 46 143 46 150 0 8 -17 12 -51 12 -27 0 -48 -4
-45 -9 3 -5 -4 -36 -16 -69 l-21 -61 -41 67 -41 67 -59 3 c-36 2 -56 -1 -52
-7z"/>
<path d="M3634 4303 c-1 -10 -22 -75 -47 -145 -25 -69 -43 -129 -40 -132 4 -3
69 -6 145 -6 l138 0 10 26 c6 14 10 28 10 32 0 4 -41 6 -91 4 l-92 -3 8 28
c11 46 22 52 102 55 68 3 77 5 84 26 8 22 7 22 -71 22 l-79 0 10 30 c11 29 11
29 96 32 79 3 86 5 94 26 l8 22 -142 0 c-129 0 -143 -2 -143 -17z"/>
<path d="M3984 4311 c4 -5 -14 -66 -39 -136 -25 -70 -45 -134 -45 -141 0 -10
16 -14 61 -14 38 0 58 4 54 10 -4 6 1 33 10 60 22 66 46 67 70 3 10 -27 22
-54 28 -60 11 -15 117 -18 117 -4 0 5 3 16 6 25 4 11 1 16 -10 16 -14 0 -56
53 -56 71 0 4 15 10 34 13 45 9 67 36 73 89 8 69 -11 77 -175 77 -78 0 -131
-4 -128 -9z m195 -55 c28 -33 -13 -60 -82 -54 l-35 3 13 33 c12 28 18 32 53
32 22 0 45 -6 51 -14z"/>
<path d="M4402 4300 c-54 -33 -70 -108 -29 -134 12 -7 46 -19 75 -26 52 -12
63 -25 40 -48 -15 -15 -168 -17 -168 -2 0 6 -4 10 -9 10 -11 0 -33 -59 -25
-71 3 -5 61 -9 129 -9 122 0 125 1 155 28 37 33 53 81 36 113 -11 24 -25 30
-104 50 -32 7 -42 14 -40 27 3 14 18 18 80 22 84 5 82 5 92 38 7 22 7 22 -96
22 -85 0 -109 -4 -136 -20z"/>
<path d="M4950 4307 c-31 -15 -74 -102 -94 -187 -14 -58 -13 -63 5 -81 17 -17
34 -19 138 -19 127 0 133 2 145 53 7 28 -2 35 -20 17 -6 -6 -43 -10 -85 -8
l-74 3 3 35 c1 19 14 58 27 87 l24 53 73 0 c76 0 98 9 98 42 0 16 -11 18 -107
18 -65 0 -118 -5 -133 -13z"/>
<path d="M5270 4303 c0 -10 -21 -74 -45 -142 -25 -69 -42 -128 -37 -133 5 -5
64 -7 132 -6 l124 3 12 30 12 30 -79 -3 -79 -4 39 113 c22 62 38 116 35 121
-3 4 -30 8 -60 8 -45 0 -54 -3 -54 -17z"/>
<path d="M5535 4199 c-22 -67 -39 -129 -37 -138 7 -36 33 -42 160 -39 120 3
124 4 147 30 20 24 95 224 95 256 0 8 -17 12 -53 12 -36 0 -54 -4 -54 -12 0
-7 -15 -60 -34 -117 -35 -107 -47 -121 -102 -121 -51 1 -52 11 -13 126 20 60
36 112 36 117 0 4 -24 7 -52 7 l-53 -1 -40 -120z"/>
<path d="M5976 4307 c3 -8 -16 -69 -41 -136 -25 -67 -45 -128 -45 -136 0 -12
24 -15 139 -15 77 0 151 4 164 9 34 13 75 114 56 137 -9 11 -10 17 -1 22 14
10 32 57 32 87 0 14 -8 29 -19 35 -11 5 -81 10 -155 10 -109 0 -134 -3 -130
-13z m200 -52 c11 -27 -16 -45 -67 -45 -27 0 -49 2 -49 4 0 3 4 16 10 30 8 23
15 26 55 26 32 0 47 -5 51 -15z m-36 -114 c0 -5 -4 -21 -10 -35 -9 -24 -15
-26 -65 -26 -30 0 -55 2 -55 4 0 1 5 17 11 35 10 30 13 31 65 31 30 0 54 -4
54 -9z"/>
</g>
</svg>
